<mxfile host="65bd71144e">
    <diagram id="e4INAfEb2wo9peZrXnlT" name="Page-1">
        <mxGraphModel dx="1598" dy="852" grid="1" gridSize="10" guides="1" tooltips="1" connect="1" arrows="1" fold="1" page="1" pageScale="1" pageWidth="827" pageHeight="1169" background="none" math="0" shadow="0">
            <root>
                <mxCell id="0"/>
                <mxCell id="1" parent="0"/>
                <mxCell id="10" value="Application" style="swimlane;rounded=1;" parent="1" vertex="1">
                    <mxGeometry x="414" y="80" width="266" height="880" as="geometry"/>
                </mxCell>
                <mxCell id="36" style="edgeStyle=none;html=1;entryX=0.5;entryY=0;entryDx=0;entryDy=0;fontColor=#000000;rounded=1;" parent="10" source="16" edge="1">
                    <mxGeometry relative="1" as="geometry">
                        <mxPoint x="133" y="230" as="targetPoint"/>
                    </mxGeometry>
                </mxCell>
                <mxCell id="16" value="&lt;font color=&quot;#000000&quot;&gt;Appel de la fonction &quot;Recording&quot;&lt;/font&gt;" style="rounded=1;whiteSpace=wrap;html=1;strokeColor=#000000;fillColor=none;" parent="10" vertex="1">
                    <mxGeometry x="74" y="130" width="120" height="60" as="geometry"/>
                </mxCell>
                <mxCell id="32" style="edgeStyle=none;html=1;entryX=0.5;entryY=0;entryDx=0;entryDy=0;fontColor=#000000;rounded=1;" parent="10" source="20" target="31" edge="1">
                    <mxGeometry relative="1" as="geometry"/>
                </mxCell>
                <mxCell id="20" value="" style="shape=collate;whiteSpace=wrap;html=1;fontColor=none;strokeColor=#000000;fillColor=none;rounded=1;" parent="10" vertex="1">
                    <mxGeometry x="103" y="470" width="60" height="60" as="geometry"/>
                </mxCell>
                <mxCell id="24" value="Attente de l'action de l'utilisateur pour l'arrêt" style="text;html=1;align=center;verticalAlign=middle;resizable=0;points=[];autosize=1;strokeColor=none;fillColor=none;fontColor=none;rounded=1;" parent="10" vertex="1">
                    <mxGeometry x="8" y="420" width="250" height="20" as="geometry"/>
                </mxCell>
                <mxCell id="40" style="edgeStyle=none;html=1;entryX=0.5;entryY=0;entryDx=0;entryDy=0;fontColor=#000000;rounded=1;" parent="10" source="31" target="39" edge="1">
                    <mxGeometry relative="1" as="geometry"/>
                </mxCell>
                <mxCell id="31" value="&lt;font color=&quot;#000000&quot;&gt;Arrêt de l'enregistrement&lt;/font&gt;" style="rounded=1;whiteSpace=wrap;html=1;strokeColor=#000000;fillColor=none;" parent="10" vertex="1">
                    <mxGeometry x="73" y="570" width="120" height="60" as="geometry"/>
                </mxCell>
                <mxCell id="39" value="" style="rhombus;whiteSpace=wrap;html=1;fontColor=#000000;strokeColor=#000000;fillColor=none;rounded=1;" parent="10" vertex="1">
                    <mxGeometry x="108" y="680" width="50" height="50" as="geometry"/>
                </mxCell>
                <mxCell id="63" style="edgeStyle=none;html=1;entryX=0.5;entryY=0;entryDx=0;entryDy=0;fontColor=#000000;rounded=1;" parent="10" source="43" target="20" edge="1">
                    <mxGeometry relative="1" as="geometry"/>
                </mxCell>
                <mxCell id="43" value="&lt;font color=&quot;#000000&quot;&gt;Démarage de l'enregistrement&lt;br&gt;&lt;/font&gt;" style="rounded=1;whiteSpace=wrap;html=1;strokeColor=#000000;fillColor=none;" parent="10" vertex="1">
                    <mxGeometry x="73" y="335" width="120" height="60" as="geometry"/>
                </mxCell>
                <mxCell id="60" value="&lt;font color=&quot;#000000&quot;&gt;AskForSaveFile&lt;/font&gt;" style="rounded=1;whiteSpace=wrap;html=1;strokeColor=#000000;fillColor=none;" parent="10" vertex="1">
                    <mxGeometry x="73" y="230" width="120" height="60" as="geometry"/>
                </mxCell>
                <mxCell id="11" value="Utilisateur" style="swimlane;rounded=1;" parent="1" vertex="1">
                    <mxGeometry x="148" y="80" width="266" height="880" as="geometry"/>
                </mxCell>
                <mxCell id="15" style="edgeStyle=none;html=1;fontColor=none;rounded=1;" parent="11" source="12" target="14" edge="1">
                    <mxGeometry relative="1" as="geometry"/>
                </mxCell>
                <mxCell id="12" value="" style="ellipse;whiteSpace=wrap;html=1;aspect=fixed;fillColor=#000000;strokeColor=#000000;rounded=1;" parent="11" vertex="1">
                    <mxGeometry x="113" y="40" width="40" height="40" as="geometry"/>
                </mxCell>
                <mxCell id="14" value="&lt;font color=&quot;#000000&quot;&gt;&quot;Start&quot;&lt;/font&gt;" style="rounded=1;whiteSpace=wrap;html=1;strokeColor=#000000;fillColor=none;" parent="11" vertex="1">
                    <mxGeometry x="73" y="130" width="120" height="60" as="geometry"/>
                </mxCell>
                <mxCell id="23" value="&lt;font color=&quot;#000000&quot;&gt;&quot;Stop&quot;&lt;/font&gt;" style="rounded=1;whiteSpace=wrap;html=1;strokeColor=#000000;fillColor=none;" parent="11" vertex="1">
                    <mxGeometry x="73" y="470" width="120" height="60" as="geometry"/>
                </mxCell>
                <mxCell id="58" style="edgeStyle=none;html=1;entryX=0.5;entryY=0;entryDx=0;entryDy=0;fontColor=#000000;rounded=1;" parent="11" source="33" target="45" edge="1">
                    <mxGeometry relative="1" as="geometry"/>
                </mxCell>
                <mxCell id="33" value="Ou souhaiter vous enregistrer votre vidéo et sous qu'elle nom ?" style="rounded=1;whiteSpace=wrap;html=1;fontColor=#000000;strokeColor=#000000;fillColor=none;" parent="11" vertex="1">
                    <mxGeometry x="73" y="230" width="120" height="60" as="geometry"/>
                </mxCell>
                <mxCell id="65" style="edgeStyle=none;html=1;entryX=0.5;entryY=0;entryDx=0;entryDy=0;fontColor=#000000;rounded=1;" parent="11" source="41" target="64" edge="1">
                    <mxGeometry relative="1" as="geometry"/>
                </mxCell>
                <mxCell id="41" value="Arrêt de l'enregistrement" style="rounded=1;whiteSpace=wrap;html=1;fontColor=#000000;strokeColor=#000000;fillColor=none;" parent="11" vertex="1">
                    <mxGeometry x="73" y="675" width="120" height="60" as="geometry"/>
                </mxCell>
                <mxCell id="45" value="Nom + chemin d'accès" style="rounded=1;whiteSpace=wrap;html=1;fontColor=#000000;strokeColor=#000000;fillColor=none;" parent="11" vertex="1">
                    <mxGeometry x="73" y="335" width="120" height="60" as="geometry"/>
                </mxCell>
                <mxCell id="64" value="" style="ellipse;html=1;shape=endState;fillColor=#000000;strokeColor=#990000;fontColor=#000000;rounded=1;" parent="11" vertex="1">
                    <mxGeometry x="118" y="790" width="30" height="30" as="geometry"/>
                </mxCell>
                <mxCell id="66" value="Exit" style="text;html=1;align=center;verticalAlign=middle;resizable=0;points=[];autosize=1;strokeColor=none;fillColor=none;fontColor=#000000;rounded=1;" parent="11" vertex="1">
                    <mxGeometry x="113" y="830" width="40" height="20" as="geometry"/>
                </mxCell>
                <mxCell id="17" style="edgeStyle=none;html=1;entryX=0;entryY=0.5;entryDx=0;entryDy=0;fontColor=none;rounded=1;" parent="1" source="14" target="16" edge="1">
                    <mxGeometry relative="1" as="geometry"/>
                </mxCell>
                <mxCell id="29" style="edgeStyle=none;html=1;fontColor=#000000;rounded=1;" parent="1" source="23" target="20" edge="1">
                    <mxGeometry relative="1" as="geometry"/>
                </mxCell>
                <mxCell id="42" style="edgeStyle=none;html=1;entryX=1;entryY=0.5;entryDx=0;entryDy=0;fontColor=#000000;rounded=1;" parent="1" source="39" target="41" edge="1">
                    <mxGeometry relative="1" as="geometry"/>
                </mxCell>
                <mxCell id="57" style="edgeStyle=none;html=1;entryX=0;entryY=0.5;entryDx=0;entryDy=0;fontColor=#000000;rounded=1;" parent="1" source="45" target="43" edge="1">
                    <mxGeometry relative="1" as="geometry"/>
                </mxCell>
                <mxCell id="61" style="edgeStyle=none;html=1;entryX=1;entryY=0.5;entryDx=0;entryDy=0;fontColor=#000000;rounded=1;" parent="1" source="60" target="33" edge="1">
                    <mxGeometry relative="1" as="geometry"/>
                </mxCell>
                <mxCell id="67" value="&lt;font style=&quot;font-size: 18px&quot;&gt;Digramme d'activité démarer un enregistrement&lt;/font&gt;" style="text;html=1;align=center;verticalAlign=middle;resizable=0;points=[];autosize=1;strokeColor=none;fillColor=none;fontColor=#000000;rounded=1;" parent="1" vertex="1">
                    <mxGeometry x="214" y="30" width="400" height="20" as="geometry"/>
                </mxCell>
            </root>
        </mxGraphModel>
    </diagram>
</mxfile>